<svg width="32" height="32" viewBox="0 0 32 32" fill="none" xmlns="http://www.w3.org/2000/svg">
<path fill-rule="evenodd" clip-rule="evenodd" d="M16 26C21.5228 26 26 21.5228 26 16C26 10.4772 21.5228 6 16 6C10.4772 6 6 10.4772 6 16C6 21.5228 10.4772 26 16 26ZM11.6795 11C11.8547 10.9985 12.0235 11.0659 12.1495 11.1876V11.1869L16.0085 15.0469L19.8675 11.1876C19.9936 11.0659 20.1624 10.9985 20.3376 11C20.5128 11.0015 20.6804 11.0718 20.8043 11.1957C20.9282 11.3196 20.9985 11.4872 21 11.6625C21.0015 11.8377 20.9341 12.0065 20.8124 12.1325L16.9534 15.9918L20.8124 19.851C20.9341 19.9771 21.0015 20.1459 21 20.3211C20.9985 20.4963 20.9282 20.6639 20.8043 20.7878C20.6804 20.9117 20.5128 20.982 20.3376 20.9836C20.1624 20.9851 19.9936 20.9177 19.8675 20.796L16.0085 16.9367L12.1489 20.796C12.0872 20.8598 12.0135 20.9107 11.932 20.9457C11.8504 20.9808 11.7628 20.9992 11.674 21C11.5853 21.0007 11.4973 20.9838 11.4152 20.9502C11.3331 20.9166 11.2585 20.867 11.1957 20.8043C11.133 20.7415 11.0834 20.6669 11.0498 20.5848C11.0162 20.5027 10.9993 20.4147 11 20.3259C11.0008 20.2372 11.0192 20.1495 11.0543 20.068C11.0893 19.9864 11.1402 19.9127 11.204 19.851L15.0637 15.9918L11.2047 12.1325C11.0829 12.0065 11.0156 11.8377 11.0171 11.6625C11.0186 11.4872 11.0889 11.3196 11.2128 11.1957C11.3367 11.0718 11.5043 11.0015 11.6795 11Z" fill="#808D9A"/>
</svg>
