<svg width="32" height="32" viewBox="0 0 32 32" fill="none" xmlns="http://www.w3.org/2000/svg">
<path d="M14 6.5C18.1421 6.5 21.5 9.85786 21.5 14C21.5 15.7101 20.9276 17.2866 19.964 18.5483L24.7071 23.2929C25.0976 23.6834 25.0976 24.3166 24.7071 24.7071C24.3466 25.0676 23.7794 25.0953 23.3871 24.7903L23.2929 24.7071L18.5483 19.964C17.2866 20.9276 15.7101 21.5 14 21.5C9.85786 21.5 6.5 18.1421 6.5 14C6.5 9.85786 9.85786 6.5 14 6.5ZM14 8.5C10.9624 8.5 8.5 10.9624 8.5 14C8.5 17.0376 10.9624 19.5 14 19.5C17.0376 19.5 19.5 17.0376 19.5 14C19.5 10.9624 17.0376 8.5 14 8.5Z" fill="#808D9A"/>
</svg>
